<?xml version="1.0" encoding="utf-8"?>
<!-- Generator: Adobe Illustrator 17.1.0, SVG Export Plug-In . SVG Version: 6.00 Build 0)  -->
<!DOCTYPE svg PUBLIC "-//W3C//DTD SVG 1.1//EN" "http://www.w3.org/Graphics/SVG/1.1/DTD/svg11.dtd">
<svg version="1.1" id="Board_1" xmlns="http://www.w3.org/2000/svg" xmlns:xlink="http://www.w3.org/1999/xlink" x="0px" y="0px"
	 viewBox="258.4 375.7 95.1 25.6" enable-background="new 258.4 375.7 95.1 25.6" xml:space="preserve">
<path fill="#7D263A" d="M352.7,375.8c-10.5-0.5-20.9,0.2-31.5,0.7c-10.7,0.5-21.4-0.2-32.1,0c-5.8,0.2-11.7,0-17.5,0.6
	c-4,0.5-11.3,1.4-13.1,5.7c-0.2,0.4,0.2,0.5,0.5,0.5c10,3.2,20.6,1.3,30.9,1.4c5.6,0.1,11.3,0.1,16.9,0.4c4.9,0.2,9.9-0.2,14.7,1
	c3.1,0.8-2.5,1-3.5,1c-1.9,0.1-3.9,0-5.9-0.1c-3.2-0.2-6.3-0.5-9.6-0.5c-5.3-0.2-14-1.1-17.1,4.5c-0.1,0.2-0.1,0.3,0.2,0.5
	c3.9,2.5,8.5,1.9,12.7,3.5c0.6-0.5,1.2-1.1,1.8-1.6c1.5-0.5-0.5,0.1-0.9,0.1c-1.1,0.2-2.2,0.4-3.2,0.5c-2.4,0.5-4.8,0.9-7.1,1.7
	c-2.2,0.8-7,2.4-4.4,5.3c0.9,1.1,6.5-1.1,5.6-2c-2-2.2,3.6-2.7,4.7-2.9c2.5-0.5,4.9-0.8,7.3-1.5c0.1,0,2.8-1.2,1.8-1.6
	c-2.2-0.8-4.6-1.2-6.9-1.5c-1.3-0.2-2.6-0.5-3.9-0.9c-2-0.7-1.3-1.7,0.5-1.8c3.9-0.2,8,0.3,11.8,0.6c7.3,0.5,17.3,1.3,23.3-3.8
	c0.2-0.2,0.5-0.6,0.2-0.8c-5.1-2-10.6-1.8-16-1.9c-6.8-0.1-13.7-0.4-20.5-0.5c-6.7-0.1-13.4,0.7-20,0.3c-0.9-0.1-8.3-0.8-7.5-1.9
	c1-1.6,4.2-1.5,5.9-1.7c11-1,22.2-0.4,33.1-0.2c15,0.2,29.9-1.5,44.9-0.9C350,378.2,355.6,376,352.7,375.8L352.7,375.8z"/>
</svg>
